HIERARCHY
ROOT Hips
{
	OFFSET 32.0928 91.0905 -99.1529
	CHANNELS 6 Xposition Yposition Zposition Zrotation Xrotation Yrotation
	JOINT Spine
	{
		OFFSET 0 10.59 0
		CHANNELS 3 Zrotation Xrotation Yrotation
		JOINT Spine1
		{
			OFFSET 0 10.59 0
			CHANNELS 3 Zrotation Xrotation Yrotation
			JOINT Spine2
			{
				OFFSET 0 10.59 0
				CHANNELS 3 Zrotation Xrotation Yrotation
				JOINT Spine3
				{
					OFFSET 0 10.59 0
					CHANNELS 3 Zrotation Xrotation Yrotation
					JOINT LeftShoulder
					{
						OFFSET 1.5 7.31538 0
						CHANNELS 3 Zrotation Xrotation Yrotation
						JOINT LeftArm
						{
							OFFSET 14.3424 0 0
							CHANNELS 3 Zrotation Xrotation Yrotation
							JOINT LeftForeArm
							{
								OFFSET 29.4034 0 0
								CHANNELS 3 Zrotation Xrotation Yrotation
								JOINT LeftHand
								{
									OFFSET 23.4565 0 0
									CHANNELS 3 Zrotation Xrotation Yrotation
									End Site
									{
										OFFSET 10 0 0
									}
								}
							}
						}
					}
					JOINT RightShoulder
					{
						OFFSET -1.49999 7.31538 0
						CHANNELS 3 Zrotation Xrotation Yrotation
						JOINT RightArm
						{
							OFFSET -14.3424 0 0
							CHANNELS 3 Zrotation Xrotation Yrotation
							JOINT RightForeArm
							{
								OFFSET -29.4034 0 0
								CHANNELS 3 Zrotation Xrotation Yrotation
								JOINT RightHand
								{
									OFFSET -23.4565 0 0
									CHANNELS 3 Zrotation Xrotation Yrotation
									End Site
									{
										OFFSET -10 0 0
									}
								}
							}
						}
					}
					JOINT Neck
					{
						OFFSET 0 10.59 0
						CHANNELS 3 Zrotation Xrotation Yrotation
						JOINT Head
						{
							OFFSET 0 9.22924 0
							CHANNELS 3 Zrotation Xrotation Yrotation
							End Site
							{
								OFFSET 0 15 0
							}
						}
					}
				}
			}
		}
	}
	JOINT LeftUpLeg
	{
		OFFSET 11.2279 0 0
		CHANNELS 3 Zrotation Xrotation Yrotation
		JOINT LeftLeg
		{
			OFFSET 0 -47.7577 0
			CHANNELS 3 Zrotation Xrotation Yrotation
			JOINT LeftFoot
			{
				OFFSET 0 -35.6859 0
				CHANNELS 3 Zrotation Xrotation Yrotation
				JOINT LeftToeBase
				{
					OFFSET 0 -5.73588 9.93486
					CHANNELS 3 Zrotation Xrotation Yrotation
					End Site
					{
						OFFSET 0 0 5
					}
				}
			}
		}
	}
	JOINT RightUpLeg
	{
		OFFSET -11.2279 0 0
		CHANNELS 3 Zrotation Xrotation Yrotation
		JOINT RightLeg
		{
			OFFSET 0 -47.7577 0
			CHANNELS 3 Zrotation Xrotation Yrotation
			JOINT RightFoot
			{
				OFFSET 0 -35.6859 0
				CHANNELS 3 Zrotation Xrotation Yrotation
				JOINT RightToeBase
				{
					OFFSET 0 -5.73588 9.93486
					CHANNELS 3 Zrotation Xrotation Yrotation
					End Site
					{
						OFFSET 0 0 5
					}
				}
			}
		}
	}
}
MOTION
Frames: 13
Frame Time: 0.0111111
32.0928 91.0905 -99.1529 175.607 177.994 179.297 1.99807 1.161 -0.391485 1.99807 1.161 -0.391485 1.99807 1.161 -0.391485 1.99807 1.161 -0.391485 146.23 178.652 177.332 151.921 168.483 174.449 178.622 150.284 156.04 10.6702 -15.4321 3.86583 21.6328 2.50196 2.97457 33.2871 -3.31697 8.08256 2.92724 26.8057 9.75924 11.382 -18.2833 -3.01613 173.585 -179.688 167.704 1.381 5.29634 0.012389 13.3145 -5.60599 0.594918 176.983 174.16 -179.172 166.878 -175.208 178.236 0.104669 3.24636 0.117935 178.517 -176.285 -176.85 179.546 -179.101 -179.666 15.3146 -3.11611 -6.7111 0.083642 10.758 0.124067
32.1224 91.0894 -99.201 175.635 177.928 179.176 1.98958 1.13468 -0.377946 1.98958 1.13468 -0.377946 1.98958 1.13468 -0.377946 1.98958 1.13468 -0.377946 146.248 178.633 177.332 151.854 168.531 174.555 178.58 150.36 156.143 10.5365 -15.5134 3.85727 21.6641 2.51746 2.9746 33.2559 -3.31527 8.06616 2.90148 26.8144 9.77743 11.4063 -18.3888 -2.99146 173.621 -179.704 167.725 1.36658 5.2871 0.00261947 13.2767 -5.66237 0.640303 176.983 174.164 -179.172 166.902 -175.214 178.32 0.104712 3.2257 0.117933 178.501 -175.826 -177.279 179.541 -179.895 -179.666 15.3948 -3.35144 -6.05126 0.0837797 10.6955 0.124041
32.1577 91.0827 -99.2303 175.686 177.925 179.085 1.97135 1.1319 -0.370219 1.97135 1.1319 -0.370219 1.97135 1.1319 -0.370219 1.97135 1.1319 -0.370219 146.281 178.654 177.332 151.797 168.574 174.63 178.558 150.383 156.233 10.5269 -15.4987 3.82901 21.6763 2.49158 2.97455 33.2978 -3.40112 8.06157 2.83427 26.9521 9.77617 11.3666 -18.2806 -2.94263 173.69 -179.678 167.74 1.3409 5.27291 -0.0165918 13.2089 -5.64733 0.579173 176.984 174.193 -179.172 166.897 -175.221 178.423 0.104902 3.13344 0.117923 178.447 -175.587 -177.492 179.539 179.631 -179.666 15.3405 -3.51172 -5.70591 0.0836531 10.7529 0.124065
32.1968 91.0838 -99.2739 175.728 177.871 178.998 1.96071 1.10725 -0.364526 1.96071 1.10725 -0.364526 1.96071 1.10725 -0.364526 1.96071 1.10725 -0.364526 146.268 178.607 177.332 151.777 168.596 174.701 178.49 150.519 156.383 10.347 -15.2289 4.07426 21.7134 2.51352 2.9746 33.2547 -3.44009 8.04377 2.81349 26.9627 9.79179 11.3995 -18.3479 -2.93919 173.7 -179.719 167.713 1.35052 5.26237 -0.00574797 13.1438 -5.69974 0.589478 176.984 174.188 -179.172 166.963 -175.188 178.514 0.104669 3.24661 0.117935 178.395 -175.142 -177.945 179.534 178.82 -179.666 15.4356 -3.76077 -5.01757 0.0837565 10.706 0.124045
32.2112 91.0808 -99.2881 175.744 177.898 178.982 1.94992 1.11304 -0.374766 1.94992 1.11304 -0.374766 1.94992 1.11304 -0.374766 1.94992 1.11304 -0.374766 146.287 178.631 177.332 151.759 168.686 174.763 178.443 150.43 156.464 10.3532 -15.1636 4.05691 21.7602 2.48557 2.97453 33.2254 -3.45454 8.01692 2.85016 26.85 9.77679 11.3282 -18.2682 -2.97341 173.737 -179.694 167.675 1.35214 5.25798 -0.00424281 13.1203 -5.66476 0.573906 176.984 174.218 -179.172 166.979 -175.213 178.529 0.104802 3.18182 0.117928 178.372 -175.051 -178.034 179.533 178.57 -179.666 15.4995 -3.88691 -4.87565 0.0837581 10.7053 0.124045
32.2471 91.0725 -99.3177 175.797 177.892 178.935 1.9314 1.10838 -0.377037 1.9314 1.10838 -0.377037 1.9314 1.10838 -0.377037 1.9314 1.10838 -0.377037 146.328 178.622 177.332 151.712 168.703 174.808 178.421 150.436 156.531 10.2862 -15.213 4.0791 21.7795 2.46859 2.97449 33.2158 -3.44809 8.00334 2.81157 26.9037 9.79412 11.4383 -18.3858 -2.93764 173.797 -179.699 167.672 1.33892 5.23254 -0.00976965 13.0456 -5.66194 0.561096 176.985 174.257 -179.172 166.99 -175.195 178.575 0.10476 3.20226 0.11793 178.305 -174.757 -178.387 179.529 177.958 -179.666 15.4872 -4.11417 -4.39066 0.0836606 10.7495 0.124063
32.2665 91.0703 -99.3384 175.839 177.884 178.933 1.90961 1.10025 -0.383786 1.90961 1.10025 -0.383786 1.90961 1.10025 -0.383786 1.90961 1.10025 -0.383786 146.366 178.624 177.332 151.708 168.683 174.85 178.37 150.488 156.598 10.249 -15.1546 4.15923 21.8841 2.46519 2.97449 33.1286 -3.44759 7.94931 2.99593 26.2227 9.6639 11.2659 -17.7287 -2.95136 173.856 -179.698 167.621 1.33805 5.24489 -0.0126994 12.9945 -5.67688 0.593576 176.985 174.26 -179.172 167.003 -175.195 178.504 0.104556 3.30151 0.117942 178.249 -174.59 -178.596 179.527 177.63 -179.666 15.5319 -4.19025 -4.1406 0.0840665 10.5652 0.123988
32.3067 91.059 -99.3644 175.909 177.858 178.91 1.88481 1.08418 -0.385577 1.88481 1.08418 -0.385577 1.88481 1.08418 -0.385577 1.88481 1.08418 -0.385577 146.408 178.594 177.332 151.673 168.693 174.88 178.36 150.484 156.655 10.2424 -15.2129 4.13023 21.9126 2.47362 2.9745 33.1077 -3.45608 7.89952 2.95201 26.3038 9.69823 11.3465 -17.8544 -2.97025 173.902 -179.726 167.574 1.32931 5.22313 -0.0160282 12.8982 -5.67025 0.536065 176.986 174.368 -179.172 167.002 -175.276 178.59 0.104667 3.24746 0.117936 178.154 -174.149 -179.221 179.522 176.698 -179.665 15.4956 -4.50868 -3.32969 0.083935 10.6249 0.124012
32.3129 91.0575 -99.378 175.91 177.868 178.947 1.87683 1.08094 -0.402255 1.87683 1.08094 -0.402255 1.87683 1.08094 -0.402255 1.87683 1.08094 -0.402255 146.421 178.611 177.332 151.681 168.721 174.921 178.341 150.437 156.665 10.2227 -15.0189 4.14027 21.9767 2.47201 2.9745 33.0696 -3.51082 7.86247 2.99317 26.2031 9.64783 11.1817 -17.6533 -3.02267 173.952 -179.748 167.54 1.33068 5.21792 -0.0131645 12.8939 -5.67262 0.5655 176.987 174.39 -179.172 166.973 -175.301 178.527 0.104714 3.22447 0.117933 178.139 -174.105 -179.274 179.521 176.575 -179.665 15.5647 -4.5665 -3.27838 0.0841655 10.5203 0.12397
32.3235 91.0544 -99.3874 175.912 177.894 178.994 1.8722 1.08741 -0.423798 1.8722 1.08741 -0.423798 1.8722 1.08741 -0.423798 1.8722 1.08741 -0.423798 146.421 178.661 177.332 151.696 168.618 174.965 178.384 150.469 156.649 10.1491 -15.0751 4.18149 22.0263 2.45445 2.97446 33.017 -3.52511 7.85367 2.95905 26.3364 9.63645 11.1758 -17.6763 -3.02324 173.963 -179.733 167.494 1.33602 5.20067 -0.00486195 12.8835 -5.669 0.62607 176.986 174.383 -179.172 166.964 -175.339 178.417 0.104859 3.15427 0.117925 178.117 -174.063 -179.42 179.52 176.404 -179.665 15.5883 -4.66271 -3.12657 0.0841467 10.5288 0.123973
32.3444 91.0546 -99.4155 175.951 177.853 179.017 1.85339 1.07234 -0.430981 1.85339 1.07234 -0.430981 1.85339 1.07234 -0.430981 1.85339 1.07234 -0.430981 146.431 178.637 177.332 151.736 168.622 174.97 178.379 150.416 156.624 10.1592 -15.1354 4.23983 22.0964 2.47141 2.9745 32.964 -3.55698 7.81584 2.94059 26.324 9.61321 11.1852 -17.6103 -3.04745 174.022 -179.744 167.446 1.32688 5.19143 -0.00892582 12.8322 -5.73108 0.680095 176.987 174.391 -179.172 167.007 -175.361 178.367 0.104898 3.13534 0.117923 178.047 -173.809 -179.687 179.517 175.916 -179.665 15.7001 -4.90064 -2.7665 0.0844007 10.4134 0.123927
32.358 91.0551 -99.4378 175.937 177.837 179.035 1.85978 1.06826 -0.439025 1.85978 1.06826 -0.439025 1.85978 1.06826 -0.439025 1.85978 1.06826 -0.439025 146.408 178.653 177.332 151.749 168.625 174.986 178.453 150.282 156.564 10.1477 -15.0062 4.15044 22.1018 2.44531 2.97444 32.9093 -3.51216 7.77254 2.90738 26.3969 9.61661 11.1889 -17.5692 -3.01772 174.011 -179.733 167.4 1.32623 5.17752 -0.00632281 12.8462 -5.76109 0.703666 176.987 174.405 -179.173 166.893 -175.418 178.314 0.104923 3.12322 0.117921 178.026 -173.635 -179.866 179.515 175.551 -179.665 15.8772 -5.09115 -2.52522 0.0847973 10.2329 0.123856
32.3891 91.0525 -99.468 175.976 177.795 179.037 1.84806 1.05749 -0.437889 1.84806 1.05749 -0.437889 1.84806 1.05749 -0.437889 1.84806 1.05749 -0.437889 146.407 178.671 177.332 151.776 168.605 174.985 178.467 150.275 156.531 10.0806 -14.9785 4.21715 22.115 2.43544 2.97442 32.8865 -3.53068 7.72307 2.91662 26.351 9.582 11.1038 -17.4215 -3.02592 174.015 -179.703 167.349 1.33225 5.16881 0.000890517 12.7912 -5.8379 0.735383 176.986 174.369 -179.172 166.926 -175.383 178.279 0.104881 3.14353 0.117924 177.937 -173.331 179.851 179.511 174.962 -179.665 16.0417 -5.40916 -2.11434 0.0851792 10.0589 0.123789
